<?xml version="1.0" encoding="UTF-8" standalone="no"?>
<!-- Created with Inkscape (http://www.inkscape.org/) -->

<svg
   xmlns:dc="http://purl.org/dc/elements/1.1/"
   xmlns:cc="http://creativecommons.org/ns#"
   xmlns:rdf="http://www.w3.org/1999/02/22-rdf-syntax-ns#"
   xmlns:svg="http://www.w3.org/2000/svg"
   xmlns="http://www.w3.org/2000/svg"
   xmlns:sodipodi="http://sodipodi.sourceforge.net/DTD/sodipodi-0.dtd"
   xmlns:inkscape="http://www.inkscape.org/namespaces/inkscape"
   width="128"
   height="128"
   viewBox="0 0 128 128"
   id="svg2"
   version="1.1"
   inkscape:version="0.91 r13725"
   sodipodi:docname="vscode-phpmd.svg">
  <defs
     id="defs4" />
  <sodipodi:namedview
     id="base"
     pagecolor="#ffffff"
     bordercolor="#666666"
     borderopacity="1.0"
     inkscape:pageopacity="0.0"
     inkscape:pageshadow="2"
     inkscape:zoom="0.7"
     inkscape:cx="-498.58832"
     inkscape:cy="243.77519"
     inkscape:document-units="px"
     inkscape:current-layer="layer2"
     showgrid="false"
     inkscape:window-width="1920"
     inkscape:window-height="1005"
     inkscape:window-x="-9"
     inkscape:window-y="-9"
     inkscape:window-maximized="1"
     units="px" />
  <metadata
     id="metadata7">
    <rdf:RDF>
      <cc:Work
         rdf:about="">
        <dc:format>image/svg+xml</dc:format>
        <dc:type
           rdf:resource="http://purl.org/dc/dcmitype/StillImage" />
        <dc:title></dc:title>
      </cc:Work>
    </rdf:RDF>
  </metadata>
  <g
     inkscape:groupmode="layer"
     id="layer2"
     inkscape:label="Laag 2"
     transform="translate(0,-924.3622)">
    <g
       id="g4187"
       transform="matrix(2.0141061,0,0,2.0141061,5.243076,927.97504)"
       style="fill:#0c121c;fill-opacity:0.89519647;stroke:none;stroke-width:0.18605539;stroke-miterlimit:4;stroke-dasharray:none;stroke-opacity:1">
      <path
         id="path4149"
         d="M 49.416,10.199 C 48.844,9.44 48.011,8.949 47.07,8.817 L 37.718,7.503 38.135,4.532 C 38.246,3.741 38.042,2.952 37.558,2.31 37.074,1.668 36.373,1.254 35.581,1.143 L 27.661,0.03 C 26.004,-0.204 24.498,0.974 24.273,2.583 L 23.855,5.554 14.504,4.24 C 12.54,3.962 10.754,5.358 10.487,7.266 l -0.619,4.401 8.353,1.174 -5.855,5.855 c -0.09,0.09 -0.142,0.199 -0.201,0.305 l -1.032,0 0,37.271 c 0,2.057 1.673,3.729 3.729,3.729 l 28.541,0 c 2.057,0 3.729,-1.673 3.729,-3.729 l 0,-37.272 -5,0 0,-2.799 7.347,1.032 0.618,-4.399 c 0.132,-0.941 -0.109,-1.877 -0.681,-2.635 z M 26.253,2.861 C 26.328,2.326 26.824,1.929 27.382,2.01 l 7.922,1.113 c 0.262,0.037 0.496,0.176 0.658,0.391 0.162,0.214 0.23,0.477 0.193,0.738 L 35.738,7.223 25.835,5.831 26.253,2.861 Z M 14.89,19 18.476,15.414 22.061,19 14.89,19 Z m 11.242,0 0,-1 6,0 0,1 -6,0 z m 11,0 0,-1 3,0 0,1 -3,0 z m -2,-3 0,3 -1,0 0,-3 -10,0 0,2.243 -5.319,-5.319 21.889,3.076 -5.57,0 z"
         inkscape:connector-curvature="0"
         style="fill:#0c121c;fill-opacity:0.89519647;stroke:none;stroke-width:0.18605539;stroke-miterlimit:4;stroke-dasharray:none;stroke-opacity:1" />
      <g
         id="g4151"
         style="fill:#0c121c;fill-opacity:0.89519647;stroke:none;stroke-width:0.18605539;stroke-miterlimit:4;stroke-dasharray:none;stroke-opacity:1">
</g>
      <g
         id="g4153"
         style="fill:#0c121c;fill-opacity:0.89519647;stroke:none;stroke-width:0.18605539;stroke-miterlimit:4;stroke-dasharray:none;stroke-opacity:1">
</g>
      <g
         id="g4155"
         style="fill:#0c121c;fill-opacity:0.89519647;stroke:none;stroke-width:0.18605539;stroke-miterlimit:4;stroke-dasharray:none;stroke-opacity:1">
</g>
      <g
         id="g4157"
         style="fill:#0c121c;fill-opacity:0.89519647;stroke:none;stroke-width:0.18605539;stroke-miterlimit:4;stroke-dasharray:none;stroke-opacity:1">
</g>
      <g
         id="g4159"
         style="fill:#0c121c;fill-opacity:0.89519647;stroke:none;stroke-width:0.18605539;stroke-miterlimit:4;stroke-dasharray:none;stroke-opacity:1">
</g>
      <g
         id="g4161"
         style="fill:#0c121c;fill-opacity:0.89519647;stroke:none;stroke-width:0.18605539;stroke-miterlimit:4;stroke-dasharray:none;stroke-opacity:1">
</g>
      <g
         id="g4163"
         style="fill:#0c121c;fill-opacity:0.89519647;stroke:none;stroke-width:0.18605539;stroke-miterlimit:4;stroke-dasharray:none;stroke-opacity:1">
</g>
      <g
         id="g4165"
         style="fill:#0c121c;fill-opacity:0.89519647;stroke:none;stroke-width:0.18605539;stroke-miterlimit:4;stroke-dasharray:none;stroke-opacity:1">
</g>
      <g
         id="g4167"
         style="fill:#0c121c;fill-opacity:0.89519647;stroke:none;stroke-width:0.18605539;stroke-miterlimit:4;stroke-dasharray:none;stroke-opacity:1">
</g>
      <g
         id="g4169"
         style="fill:#0c121c;fill-opacity:0.89519647;stroke:none;stroke-width:0.18605539;stroke-miterlimit:4;stroke-dasharray:none;stroke-opacity:1">
</g>
      <g
         id="g4171"
         style="fill:#0c121c;fill-opacity:0.89519647;stroke:none;stroke-width:0.18605539;stroke-miterlimit:4;stroke-dasharray:none;stroke-opacity:1">
</g>
      <g
         id="g4173"
         style="fill:#0c121c;fill-opacity:0.89519647;stroke:none;stroke-width:0.18605539;stroke-miterlimit:4;stroke-dasharray:none;stroke-opacity:1">
</g>
      <g
         id="g4175"
         style="fill:#0c121c;fill-opacity:0.89519647;stroke:none;stroke-width:0.18605539;stroke-miterlimit:4;stroke-dasharray:none;stroke-opacity:1">
</g>
      <g
         id="g4177"
         style="fill:#0c121c;fill-opacity:0.89519647;stroke:none;stroke-width:0.18605539;stroke-miterlimit:4;stroke-dasharray:none;stroke-opacity:1">
</g>
      <g
         id="g4179"
         style="fill:#0c121c;fill-opacity:0.89519647;stroke:none;stroke-width:0.18605539;stroke-miterlimit:4;stroke-dasharray:none;stroke-opacity:1">
</g>
    </g>
  </g>
  <g
     inkscape:label="Laag 1"
     inkscape:groupmode="layer"
     id="layer1"
     transform="translate(0,-924.3622)">
    <path
       id="path4138"
       d="m 63.705146,987.36342 c -16.217049,0 -29.364681,6.66273 -29.364681,14.88128 0,8.2186 13.147632,14.8814 29.364681,14.8814 16.217051,0 29.364681,-6.6628 29.364681,-14.8814 0,-8.21855 -13.14763,-14.88128 -29.364681,-14.88128 z m -7.640852,17.78058 c -0.700783,0.6556 -1.478959,0.9262 -2.335951,1.205 -0.856991,0.2792 -1.947583,0.2216 -3.273687,0.2216 l -3.005489,0 -0.832963,4.8064 -3.509208,0 3.131414,-16.34197 6.748295,0 c 2.030259,0 3.511134,0.58399 4.442146,1.64959 0.931014,1.06558 1.21075,2.57813 0.839687,4.48778 -0.153323,0.7868 -0.411432,1.5184 -0.775759,2.1701 -0.364814,0.6522 -0.841135,1.2611 -1.428485,1.8015 z m 10.243079,1.4266 1.384745,-6.93101 c 0.157651,-0.81135 0.09998,-1.41411 -0.173512,-1.7087 -0.273969,-0.2951 -0.856513,-0.49262 -1.747155,-0.49262 l -2.782948,0 -1.793296,9.13233 -3.481812,0 3.131421,-15.86141 3.481809,0 -0.832484,4.32584 3.101619,0 c 1.951912,0 3.297727,0.39172 4.0384,1.07232 0.740679,0.6806 0.962738,1.61304 0.66666,3.13764 l -1.45684,7.32561 -3.536607,0 z m 19.350391,-5.3727 c -0.152849,0.7868 -0.411436,1.5058 -0.775289,2.1571 -0.364327,0.6523 -0.840171,1.2486 -1.428,1.789 -0.700787,0.6556 -1.479436,0.9262 -2.33595,1.205 -0.856513,0.2792 -1.948065,0.2216 -3.274174,0.2216 l -3.005489,0 -0.832475,4.8064 -3.509206,0 3.130935,-16.34197 6.74877,0 c 2.030255,0 3.511134,0.58399 4.441664,1.64959 0.930056,1.06558 1.210272,2.60408 0.839214,4.51328 z m -6.610831,-3.75963 -2.403717,0 -1.310725,6.72903 2.135036,0 c 1.414063,0 2.468606,-0.1394 3.160742,-0.6729 0.693092,-0.5326 1.159801,-1.3593 1.402526,-2.6056 0.232631,-1.19734 0.12689,-2.13117 -0.317227,-2.62339 -0.444595,-0.49218 -1.333318,-0.82714 -2.666635,-0.82714 z m -27.389699,0 -2.404199,0 -1.310725,6.72903 2.134557,0 c 1.414546,0 2.468606,-0.1394 3.161219,-0.6729 0.692615,-0.5326 1.159797,-1.3593 1.402049,-2.6056 0.232635,-1.19734 0.12689,-2.13117 -0.317232,-2.62339 -0.444113,-0.49218 -1.332353,-0.82714 -2.665669,-0.82714 z"
       inkscape:connector-curvature="0"
       style="fill:#6181b6" />
  </g>
</svg>
